<svg width="562" height="558" viewBox="0 0 562 558" fill="none" xmlns="http://www.w3.org/2000/svg">
<path fill-rule="evenodd" clip-rule="evenodd" d="M239 0.0626406C267.002 -0.104359 295.002 0.0626406 323 0.562641C324.172 0.981641 325.172 1.64764 326 2.56264C324.572 6.03664 325.072 6.53664 327.5 4.06264C328.539 5.27264 329.706 6.27264 331 7.06264C331.333 7.06264 331.667 7.06264 332 7.06264C335.098 22.9846 337.765 38.9846 340 55.0626C358.42 59.7746 376.087 66.4406 393 75.0626C406.795 82.4656 419.795 91.1316 432 101.063C433.141 102.984 433.308 104.984 432.5 107.063C418 121.563 403.5 136.063 389 150.563C386.865 151.198 384.865 150.864 383 149.563C363.159 134.475 341.159 123.975 317 118.063C313.086 116.276 308.753 115.109 304 114.563C292.515 113.183 281.181 113.016 270 114.063C266.436 114.986 262.769 115.319 259 115.063C249.492 115.36 240.492 117.36 232 121.063C208.934 128.593 188.268 140.259 170 156.063C170 154.73 170 153.396 170 152.063C171.929 152.332 173.595 151.832 175 150.563C173.948 148.847 174.614 147.847 177 147.563C175.276 147.115 174.609 146.281 175 145.063C171.957 148.806 168.29 151.806 164 154.063C161.964 152.218 159.63 151.718 157 152.563C157.667 152.896 158.333 153.23 159 153.563C157.333 154.396 155.667 155.23 154 156.063C151.874 153.848 149.208 152.681 146 152.563C144.225 149.192 145.225 147.025 149 146.063C150.248 146.603 151.415 147.27 152.5 148.063C152.983 147.115 153.149 146.115 153 145.063C156.152 144.522 158.652 145.522 160.5 148.063C160.999 144.411 161.165 140.745 161 137.063C159.825 137.282 158.825 136.949 158 136.063C162.214 132.056 161.548 130.723 156 132.063C156 131.063 156 130.063 156 129.063C155 129.063 154 129.063 153 129.063C153 127.396 153 125.73 153 124.063C150.333 124.063 147.667 124.063 145 124.063C145 123.063 145 122.063 145 121.063C147.667 121.063 150.333 121.063 153 121.063C152.818 118.888 152.151 116.888 151 115.063C151.537 113.822 152.204 112.655 153 111.563C152.667 111.063 152.333 110.563 152 110.063C150.781 110.826 149.781 111.826 149 113.063C145.546 109.526 144.213 105.193 145 100.063C139.667 99.7296 134.333 99.3956 129 99.0626C128.68 95.6646 129.013 92.3306 130 89.0626C130.98 91.6486 131.313 94.3156 131 97.0626C132.333 97.0626 133.667 97.0626 135 97.0626C135.119 93.2156 134.453 89.5486 133 86.0626C128.153 86.2516 123.486 87.2516 119 89.0626C117.226 88.6756 115.559 88.0096 114 87.0626C111.865 89.6406 109.865 89.4746 108 86.5626C109.405 85.2936 111.071 84.7936 113 85.0626C113 84.0626 113 83.0626 113 82.0626C102.333 81.7296 102.333 81.3956 113 81.0626C113 80.0626 113 79.0626 113 78.0626C115.549 78.1756 117.882 77.5086 120 76.0626C123.003 76.6476 126.003 77.3146 129 78.0626C109.178 80.1336 109.178 81.3006 129 81.5626C124.549 81.6926 120.216 82.3586 116 83.5626C127.179 88.1416 132.845 84.6416 133 73.0626C135.761 71.6426 138.761 70.9756 142 71.0626C141.83 69.7406 142.163 68.5736 143 67.5626C144.973 67.0676 146.973 66.9006 149 67.0626C148.851 68.1146 149.017 69.1146 149.5 70.0626C150.914 69.1496 152.414 69.1496 154 70.0626C157.899 71.9486 161.566 74.2816 165 77.0626C166.239 76.6206 167.239 75.9536 168 75.0626C184.953 66.5746 202.619 59.7416 221 54.5626C223.534 45.9186 225.201 37.0856 226 28.0626C227.797 21.5956 229.297 14.9296 230.5 8.06264C231.913 3.81464 234.746 1.14764 239 0.0626406Z" fill="#E66C07"/>
<path fill-rule="evenodd" clip-rule="evenodd" d="M123 46.0626C123.333 46.0626 123.667 46.0626 124 46.0626C126 47.7296 128 49.3956 130 51.0626C124.352 47.9416 118.352 47.2746 112 49.0626C112.847 47.5966 114.18 46.7626 116 46.5626C118.31 46.0656 120.643 45.8996 123 46.0626Z" fill="#C65F23"/>
<path fill-rule="evenodd" clip-rule="evenodd" d="M130 51.0626C138.6 56.6646 146.6 62.9986 154 70.0626C152.414 69.1496 150.914 69.1496 149.5 70.0626C149.017 69.1146 148.851 68.1146 149 67.0626C146.973 66.9006 144.973 67.0676 143 67.5626C142.163 68.5736 141.83 69.7406 142 71.0626C138.761 70.9756 135.761 71.6426 133 73.0626C132.845 84.6416 127.179 88.1416 116 83.5626C120.216 82.3586 124.549 81.6926 129 81.5626C109.178 81.3006 109.178 80.1336 129 78.0626C126.003 77.3146 123.003 76.6476 120 76.0626C117.882 77.5086 115.549 78.1756 113 78.0626C113 79.0626 113 80.0626 113 81.0626C102.333 81.3956 102.333 81.7296 113 82.0626C113 83.0626 113 84.0626 113 85.0626C111.071 84.7936 109.405 85.2936 108 86.5626C109.865 89.4746 111.865 89.6406 114 87.0626C115.559 88.0096 117.226 88.6756 119 89.0626C123.486 87.2516 128.153 86.2516 133 86.0626C134.453 89.5486 135.119 93.2156 135 97.0626C133.667 97.0626 132.333 97.0626 131 97.0626C131.313 94.3156 130.98 91.6486 130 89.0626C129.013 92.3306 128.68 95.6646 129 99.0626C134.333 99.3956 139.667 99.7296 145 100.063C144.213 105.193 145.546 109.526 149 113.063C149.781 111.826 150.781 110.826 152 110.063C152.333 110.563 152.667 111.063 153 111.563C152.204 112.655 151.537 113.822 151 115.063C152.151 116.888 152.818 118.888 153 121.063C150.333 121.063 147.667 121.063 145 121.063C145 122.063 145 123.063 145 124.063C147.667 124.063 150.333 124.063 153 124.063C153 125.73 153 127.396 153 129.063C154 129.063 155 129.063 156 129.063C156 130.063 156 131.063 156 132.063C161.548 130.723 162.214 132.056 158 136.063C158.825 136.949 159.825 137.282 161 137.063C161.165 140.745 160.999 144.411 160.5 148.063C158.652 145.522 156.152 144.522 153 145.063C153.149 146.115 152.983 147.115 152.5 148.063C151.415 147.27 150.248 146.603 149 146.063C145.225 147.025 144.225 149.192 146 152.563C149.208 152.681 151.874 153.848 154 156.063C155.667 155.23 157.333 154.396 159 153.563C158.333 153.23 157.667 152.896 157 152.563C159.63 151.718 161.964 152.218 164 154.063C168.29 151.806 171.957 148.806 175 145.063C174.609 146.281 175.276 147.115 177 147.563C174.614 147.847 173.948 148.847 175 150.563C173.595 151.832 171.929 152.332 170 152.063C170 153.396 170 154.73 170 156.063C164.703 161.861 159.203 167.528 153.5 173.063C148.752 178.964 144.252 184.964 140 191.063C138.363 190.345 136.697 190.179 135 190.563C133.833 192.396 132.667 194.23 131.5 196.063C130.342 195.565 129.509 194.732 129 193.563C130.189 191.668 131.189 189.668 132 187.563C134.249 186.7 136.082 187.2 137.5 189.063C137.919 187.891 138.585 186.891 139.5 186.063C138.81 183.907 138.977 181.74 140 179.563C139.163 177.976 137.83 177.143 136 177.063C133.923 178.5 131.59 179.167 129 179.063C129.273 181.014 128.607 182.514 127 183.563C128.293 184.053 129.627 184.22 131 184.063C131 185.063 131 186.063 131 187.063C129.667 187.063 128.333 187.063 127 187.063C127.308 189.487 126.974 191.82 126 194.063C125.333 191.396 124.667 188.73 124 186.063C120.406 185.137 116.74 184.804 113 185.063C113 184.063 113 183.063 113 182.063C111.948 182.212 110.948 182.046 110 181.563C111.187 180.544 112.187 179.377 113 178.063C110.432 176.695 108.099 177.029 106 179.063C105.333 175.73 104.667 172.396 104 169.063C103.02 171.649 102.687 174.316 103 177.063C102 177.063 101 177.063 100 177.063C100 174.396 100 171.73 100 169.063C96.3183 168.898 92.6523 169.064 89.0003 169.563C89.6673 170.23 90.3333 170.896 91.0003 171.563C89.2713 173.352 88.6043 175.519 89.0003 178.063C82.2933 177.232 75.6263 177.732 69.0003 179.563C68.3333 180.563 67.6673 181.563 67.0003 182.563C68.8883 184.513 70.0543 186.68 70.5003 189.063C68.4283 186.409 66.7613 186.743 65.5003 190.063C64.7623 192.775 65.4293 195.108 67.5003 197.063C68.5413 194.978 70.0413 193.311 72.0003 192.063C77.6123 193.14 83.2793 193.973 89.0003 194.563C86.3543 195.06 83.6873 195.227 81.0003 195.063C81.0003 196.063 81.0003 197.063 81.0003 198.063C83.7473 197.75 86.4143 198.083 89.0003 199.063C85.6893 199.681 82.5223 200.681 79.5003 202.063C77.3013 200.918 75.1353 200.918 73.0003 202.063C73.8763 202.814 74.8763 203.314 76.0003 203.563C74.0613 204.471 73.0613 205.971 73.0003 208.063C77.0003 208.396 77.0003 208.73 73.0003 209.063C73.0003 211.73 73.0003 214.396 73.0003 217.063C66.3323 217.407 59.9993 218.074 54.0003 219.063C54.0633 212.776 56.3973 207.61 61.0003 203.563C61.0393 202.318 60.7053 200.985 60.0003 199.563C61.3713 197.244 62.0383 194.744 62.0003 192.063C66.4423 181.177 71.4423 170.51 77.0003 160.063C73.5853 155.987 70.5853 151.654 68.0003 147.063C64.5253 143.459 61.5253 139.459 59.0003 135.063C55.6653 130.888 52.4983 126.555 49.5003 122.063C48.5553 117.502 49.0553 113.169 51.0003 109.063C51.7393 109.194 52.4063 109.027 53.0003 108.563C60.2613 101.807 66.9283 94.6406 73.0003 87.0626C83.7463 77.8196 94.0803 67.9866 104 57.5626C105.493 56.1946 106.993 56.0276 108.5 57.0626C108.503 53.8136 109.67 51.1466 112 49.0626C118.352 47.2746 124.352 47.9416 130 51.0626Z" fill="#E76A07"/>
<path fill-rule="evenodd" clip-rule="evenodd" d="M112 49.0626C109.67 51.1466 108.503 53.8136 108.5 57.0626C106.993 56.0276 105.493 56.1946 104 57.5626C94.0802 67.9866 83.7462 77.8196 73.0002 87.0626C85.3852 73.6766 98.3852 61.0096 112 49.0626Z" fill="#CB6627"/>
<path fill-rule="evenodd" clip-rule="evenodd" d="M467 135.063C450 151.396 433.333 168.063 417 185.063C409.134 193.096 400.801 200.596 392 207.563C379.413 215.278 366.08 216.945 352 212.563C339.685 208.681 327.685 204.014 316 198.563C284.715 185.251 272.215 195.084 278.5 228.063C284.849 247.444 292.183 266.444 300.5 285.063C307.108 300.766 310.108 317.1 309.5 334.063C304.631 357.088 290.465 367.254 267 364.563C260.11 363.785 253.443 362.118 247 359.563C233.495 353.506 219.828 347.839 206 342.563C200.738 341.124 195.404 340.791 190 341.563C187.258 342.633 184.758 344.133 182.5 346.063C177.055 352.177 172.388 358.843 168.5 366.063C138.333 397.563 107.5 428.396 76.0002 458.563C68.1093 460.7 62.6092 457.867 59.5002 450.063C58.8332 448.063 58.8332 446.063 59.5002 444.063C69.5062 433.224 79.6722 422.558 90.0002 412.063C106.667 396.063 123 379.73 139 363.063C147.59 355.226 154.757 346.226 160.5 336.063C175.789 317.975 194.622 313.141 217 321.563C230.781 326.954 244.448 332.62 258 338.563C265.514 341.739 273.18 342.406 281 340.563C285.82 336.946 287.82 332.113 287 326.063C285.112 311.56 281.278 297.56 275.5 284.063C265.368 264.801 258.368 244.468 254.5 223.063C250.288 203.351 256.121 187.518 272 175.563C283.125 169.864 294.791 168.531 307 171.563C312.712 173.074 318.379 174.741 324 176.563C335.554 181.506 347.221 186.173 359 190.563C367.367 193.221 375.034 191.888 382 186.563C415 154.23 448 121.896 481 89.5626C492.167 88.7296 497.333 93.8956 496.5 105.063C486.464 114.931 476.631 124.931 467 135.063Z" fill="#020102"/>
<path fill-rule="evenodd" clip-rule="evenodd" d="M68.0002 147.063C68.9812 145.074 69.9812 143.074 71.0002 141.063C70.6672 140.396 70.3332 139.73 70.0002 139.063C69.0002 140.396 68.0002 141.73 67.0002 143.063C66.4142 142.854 65.9142 142.52 65.5002 142.063C64.3432 138.796 63.5102 135.129 63.0002 131.063C65.2922 131.319 67.4592 130.986 69.5002 130.063C70.8192 131.813 71.3192 133.813 71.0002 136.063C72.0002 136.063 73.0002 136.063 74.0002 136.063C74.1622 134.036 73.9952 132.036 73.5002 130.063C72.7502 129.437 71.9162 128.937 71.0002 128.563C73.6772 126.715 76.3442 126.882 79.0002 129.063C80.0032 139.713 81.0032 139.713 82.0002 129.063C84.0922 129.124 85.5922 130.124 86.5002 132.063C86.7492 130.939 87.2492 129.939 88.0002 129.063C88.2622 134.28 88.5952 139.614 89.0002 145.063C96.9332 143.471 104.933 142.638 113 142.563C109.103 142.339 105.436 141.339 102 139.563C102.547 138.638 103.213 137.805 104 137.063C106.921 137.97 109.921 138.303 113 138.063C112.834 134.049 113.001 130.049 113.5 126.063C114.758 128.618 116.591 129.285 119 128.063C120.671 126.053 121.338 123.72 121 121.063C123.667 121.063 126.333 121.063 129 121.063C129 119.396 129 117.73 129 116.063C126.333 116.063 123.667 116.063 121 116.063C121 117.396 121 118.73 121 120.063C118.333 120.063 115.667 120.063 113 120.063C113 121.396 113 122.73 113 124.063C110.333 124.063 107.667 124.063 105 124.063C105 126.396 105 128.73 105 131.063C103.948 130.914 102.948 131.08 102 131.563C103.939 132.471 104.939 133.971 105 136.063C101.714 136.77 98.3812 137.103 95.0002 137.063C94.6872 134.316 95.0202 131.649 96.0002 129.063C97.6672 130.396 99.3332 130.396 101 129.063C101.98 126.477 102.313 123.81 102 121.063C100.333 121.063 98.6672 121.063 97.0002 121.063C97.0002 123.063 97.0002 125.063 97.0002 127.063C94.3332 127.063 91.6672 127.063 89.0002 127.063C89.0002 126.063 89.0002 125.063 89.0002 124.063C86.3332 124.063 83.6672 124.063 81.0002 124.063C81.0002 123.063 81.0002 122.063 81.0002 121.063C88.2362 121.919 94.9032 120.585 101 117.063C98.1632 116.054 96.8302 114.054 97.0002 111.063C94.3332 111.063 91.6672 111.063 89.0002 111.063C89.0002 109.73 89.0002 108.396 89.0002 107.063C92.0792 106.823 95.0792 107.156 98.0002 108.063C99.1722 107.644 100.172 106.978 101 106.063C97.9432 103.607 96.9432 100.607 98.0002 97.0626C98.6672 98.3956 99.3332 99.7296 100 101.063C101.674 99.6826 103.34 98.3496 105 97.0626C105.667 97.3956 106.333 97.7296 107 98.0626C105.414 99.7356 104.747 101.736 105 104.063C101 104.396 101 104.73 105 105.063C105 107.396 105 109.73 105 112.063C103.301 111.903 101.634 112.069 100 112.563C107.003 113.307 114.003 113.641 121 113.563C122.443 112.496 123.776 111.329 125 110.063C126.219 110.826 127.219 111.826 128 113.063C129.131 111.489 129.298 109.822 128.5 108.063C127.48 106.672 126.647 105.172 126 103.563C125.333 102.896 124.667 102.896 124 103.563C122.607 108.945 120.607 109.279 118 104.563C119 103.73 120 102.896 121 102.063C126.333 100.73 131.667 100.73 137 102.063C134.414 103.043 131.747 103.376 129 103.063C128.738 104.541 129.071 105.874 130 107.063C132.099 105.029 134.432 104.695 137 106.063C136.187 107.377 135.187 108.544 134 109.563C134.948 110.046 135.948 110.212 137 110.063C137.331 118.091 136.998 126.091 136 134.063C134.869 135.314 133.536 136.314 132 137.063C130.853 136.745 130.019 136.079 129.5 135.063C129.003 137.709 128.836 140.376 129 143.063C126.253 142.75 123.586 143.083 121 144.063C122.967 146.575 123.3 149.242 122 152.063C122.825 152.949 123.825 153.282 125 153.063C123.667 150.396 123.667 147.73 125 145.063C128.414 145.299 131.747 145.965 135 147.063C136.586 148.736 137.253 150.736 137 153.063C138.984 152.946 140.65 153.613 142 155.063C142.667 154.73 143.333 154.396 144 154.063C144.974 156.306 145.308 158.639 145 161.063C146 161.063 147 161.063 148 161.063C147.545 164.025 146.379 166.692 144.5 169.063C141.93 168.554 139.597 167.554 137.5 166.063C136.96 167.698 137.46 169.031 139 170.063C137.308 171.532 135.308 172.198 133 172.063C128.798 171.607 124.798 170.44 121 168.563C116.97 168.237 112.97 168.237 109 168.563C110.123 167.519 111.456 166.853 113 166.563C111.498 165.98 110.165 165.147 109 164.063C109.209 163.477 109.543 162.977 110 162.563C113.923 161.77 117.756 161.937 121.5 163.063C122.25 162.437 123.084 161.937 124 161.563C120.887 161.616 118.387 160.449 116.5 158.063C116.017 159.011 115.851 160.011 116 161.063C112.552 160.671 109.386 161.338 106.5 163.063C106 162.73 105.5 162.396 105 162.063C106.117 160.614 106.784 158.947 107 157.063C106.074 154.093 105.408 151.093 105 148.063C102.333 148.063 99.6672 148.063 97.0002 148.063C97.0002 149.73 97.0002 151.396 97.0002 153.063C95.9482 152.914 94.9482 153.08 94.0002 153.563C96.5552 154.821 97.2222 156.654 96.0002 159.063C93.4972 160.322 90.9972 161.655 88.5002 163.063C86.1392 161.369 84.1392 159.369 82.5002 157.063C82.0002 157.396 81.5002 157.73 81.0002 158.063C82.8712 160.433 84.5382 162.933 86.0002 165.563C84.1972 166.2 82.8642 167.366 82.0002 169.063C81.3332 167.73 80.6672 166.396 80.0002 165.063C78.6052 166.378 77.6052 166.044 77.0002 164.063C78.6872 160.66 78.0202 157.827 75.0002 155.563C75.3332 155.23 75.6672 154.896 76.0002 154.563C73.2092 152.093 70.5422 149.593 68.0002 147.063Z" fill="#E76E06"/>
<path fill-rule="evenodd" clip-rule="evenodd" d="M73.0002 87.0626C66.9282 94.6406 60.2612 101.807 53.0002 108.563C52.4062 109.027 51.7392 109.194 51.0002 109.063C58.0002 101.396 65.3332 94.0626 73.0002 87.0626Z" fill="#C9662A"/>
<path fill-rule="evenodd" clip-rule="evenodd" d="M270 114.063C281.181 113.016 292.515 113.183 304 114.563C308.753 115.109 313.086 116.276 317 118.063C315.667 118.063 314.333 118.063 313 118.063C298.962 115.093 284.628 113.76 270 114.063Z" fill="#C35D1F"/>
<path fill-rule="evenodd" clip-rule="evenodd" d="M259 115.063C253.644 116.304 248.311 117.638 243 119.063C239.267 119.433 235.601 120.1 232 121.063C240.492 117.36 249.492 115.36 259 115.063Z" fill="#C45A1C"/>
<path fill-rule="evenodd" clip-rule="evenodd" d="M468 137.063C486.027 161.173 499.361 187.84 508 217.063C510.667 217.396 513.333 217.73 516 218.063C528.504 220.651 541.171 223.151 554 225.563C555.593 226.512 556.926 227.678 558 229.063C556.414 228.15 554.914 228.15 553.5 229.063C553.017 228.115 552.851 227.115 553 226.063C543.393 224.19 533.726 223.023 524 222.563C522.598 223.905 522.931 224.739 525 225.063C531.93 226.476 538.597 227.809 545 229.063C544.84 230.762 545.006 232.429 545.5 234.063C547.901 232.961 550.401 232.794 553 233.563C550.578 235.451 550.578 237.451 553 239.563C552 240.23 551 240.23 550 239.563C549.101 238.327 547.934 237.493 546.5 237.063C543.078 238.184 539.911 239.684 537 241.563C542.744 240.991 548.41 240.491 554 240.063C554.874 237.816 555.208 235.483 555 233.063C556 233.063 557 233.063 558 233.063C556.909 236.507 555.909 240.007 555 243.563C556.418 244.647 557.418 246.647 558 249.563C557.597 254.387 557.264 259.387 557 264.563C557.167 267.396 557.333 270.23 557.5 273.063C557.833 270.396 558.167 267.73 558.5 265.063C559.163 281.115 558.497 297.115 556.5 313.063C555.378 310.254 554.878 307.254 555 304.063C554.756 299.474 555.422 295.807 557 293.063C556.558 280.574 555.558 268.241 554 256.063C554.051 253.34 554.384 250.673 555 248.063C554 245.396 553 245.396 552 248.063C552.431 248.856 552.765 249.69 553 250.563C551.891 252.61 551.224 254.776 551 257.063C549.667 257.063 548.333 257.063 547 257.063C546.333 254.396 545.667 251.73 545 249.063C543.333 249.063 541.667 249.063 540 249.063C540 250.063 540 251.063 540 252.063C539 252.063 538 252.063 537 252.063C535.547 248.577 534.881 244.91 535 241.063C533.667 241.063 532.333 241.063 531 241.063C530.954 245.916 529.954 250.583 528 255.063C526 256.396 524 257.73 522 259.063C519.873 256.946 519.54 257.612 521 261.063C520.1 265.546 518.767 265.88 517 262.063C515.504 265.898 514.504 265.898 514 262.063C510.982 261.898 507.982 262.065 505 262.563C507.646 263.06 510.313 263.227 513 263.063C513 264.063 513 265.063 513 266.063C515.828 267.024 518.495 266.858 521 265.563C523.5 263.063 526 260.563 528.5 258.063C528.876 260.573 529.71 262.906 531 265.063C532.471 264.182 533.304 262.849 533.5 261.063C536.183 264.391 537.016 268.058 536 272.063C533.943 273.385 532.11 273.052 530.5 271.063C526.771 273.535 522.938 273.702 519 271.563C520.473 270.853 521.14 269.687 521 268.063C518.58 267.855 516.247 268.189 514 269.063C512.326 267.683 510.66 266.35 509 265.063C507.412 265.573 506.245 266.573 505.5 268.063C503.236 265.473 500.403 264.64 497 265.563C498.123 266.607 499.456 267.273 501 267.563C499.937 268.751 498.603 269.251 497 269.063C497 270.063 497 271.063 497 272.063C499.955 272.722 502.955 273.055 506 273.063C505.341 276.018 505.008 279.018 505 282.063C510.44 281.301 513.107 283.634 513 289.063C509.859 288.614 506.859 287.614 504 286.063C502.389 286.883 501.722 288.217 502 290.063C504 289.73 506 289.396 508 289.063C508 290.063 508 291.063 508 292.063C504.93 293.48 501.763 294.813 498.5 296.063C496.498 293.812 493.998 292.812 491 293.063C490.83 294.385 491.163 295.552 492 296.563C491.052 297.046 490.052 297.212 489 297.063C488.687 294.316 489.02 291.649 490 289.063C490.667 289.396 491.333 289.73 492 290.063C494.677 289.489 497.343 288.822 500 288.063C499.667 287.063 499 286.396 498 286.063C492.688 286.839 487.355 287.506 482 288.063C483.041 291.105 483.041 294.105 482 297.063C477.662 296.941 477.328 296.608 481 296.063C481 295.063 481 294.063 481 293.063C477.865 291.177 474.365 289.844 470.5 289.063C468.675 289.506 466.842 289.84 465 290.063C465 291.063 465 292.063 465 293.063C466.603 292.875 467.937 293.375 469 294.563C467.456 294.853 466.123 295.519 465 296.563C467.406 296.869 469.573 297.702 471.5 299.063C474.605 298.196 477.772 297.862 481 298.063C481 299.063 481 300.063 481 301.063C478.333 301.063 475.667 301.063 473 301.063C473 304.396 473 307.73 473 311.063C467.062 311.377 466.062 309.71 470 306.063C468.288 302.772 465.955 302.272 463 304.563C465.209 305.52 465.043 306.687 462.5 308.063C462.017 307.115 461.851 306.115 462 305.063C460.667 305.063 459.333 305.063 458 305.063C457.921 303.633 458.254 302.299 459 301.063C458 299.73 457 299.73 456 301.063C455.44 303.417 454.773 305.75 454 308.063C452.378 303.16 453.045 298.66 456 294.563C453.168 292.655 453.501 291.822 457 292.063C456.537 286.977 456.537 281.977 457 277.063C456.972 272.664 456.472 272.331 455.5 276.063C455.167 273.396 454.833 270.73 454.5 268.063C452.704 270.283 452.537 272.617 454 275.063C453.606 281.29 452.273 287.29 450 293.063C449.279 289.528 449.612 286.028 451 282.563C449.858 276.479 449.691 270.312 450.5 264.063C452.949 259.565 454.782 254.732 456 249.563C455.41 248.054 454.744 246.554 454 245.063C453.366 247.13 452.366 248.963 451 250.563C452.75 252.317 453.417 254.484 453 257.063C449.965 256.385 448.299 254.385 448 251.063C452.184 245.662 453.518 239.662 452 233.063C453.643 233.083 454.976 232.416 456 231.063C456.333 231.73 456.667 232.396 457 233.063C454.397 238.201 454.73 243.201 458 248.063C457.569 248.856 457.235 249.69 457 250.563C458.478 252.041 459.978 253.541 461.5 255.063C462.746 253.791 463.913 253.458 465 254.063C463.985 255.244 462.819 256.244 461.5 257.063C459.503 255.184 457.336 254.851 455 256.063C457.548 257.782 457.215 259.115 454 260.063C455.797 261.258 456.797 262.925 457 265.063C459.46 266.5 462.126 267.5 465 268.063C465 269.73 465 271.396 465 273.063C466.667 273.063 468.333 273.063 470 273.063C470 272.063 470 271.063 470 270.063C471.643 270.083 472.976 269.416 474 268.063C476.118 269.509 478.451 270.176 481 270.063C481 271.063 481 272.063 481 273.063C482 273.063 483 273.063 484 273.063C483.687 275.81 484.02 278.477 485 281.063C485.752 277.371 486.586 273.705 487.5 270.063C489.78 269.477 491.947 268.643 494 267.563C491.24 266.889 488.573 266.056 486 265.063C486 266.063 486 267.063 486 268.063C483.589 268.426 482.089 267.426 481.5 265.063C479.774 266.139 477.941 266.306 476 265.563C476.948 265.08 477.948 264.914 479 265.063C478.881 261.216 479.547 257.549 481 254.063C477.799 252.386 474.465 250.886 471 249.563C473 249.23 475 248.896 477 248.563C478.635 246.815 480.635 245.648 483 245.063C480.635 244.478 478.635 243.311 477 241.563C478.063 240.375 479.397 239.875 481 240.063C481.17 238.741 480.837 237.574 480 236.563C477.76 235.586 475.427 235.086 473 235.063C472.86 236.687 473.527 237.853 475 238.563C469.304 239.337 463.637 240.17 458 241.063C458.449 237.922 459.449 234.922 461 232.063C460.18 230.452 458.846 229.785 457 230.063C457 228.396 457 226.73 457 225.063C452.971 225.414 449.138 224.748 445.5 223.063C444.441 223.193 443.608 223.693 443 224.563C444.211 225.456 444.211 226.289 443 227.063C439.874 224.395 439.54 221.562 442 218.563C440.667 217.23 439.333 215.896 438 214.563C439.641 212.917 439.307 211.917 437 211.563C437.333 211.23 437.667 210.896 438 210.563C435.085 207.476 432.752 203.976 431 200.063C431.5 199.063 432 198.063 432.5 197.063C434.146 198.342 435.313 200.008 436 202.063C438.284 200.72 439.117 201.387 438.5 204.063C438.167 203.73 437.833 203.396 437.5 203.063C436.833 204.396 436.833 205.73 437.5 207.063C439.07 208.177 440.403 209.51 441.5 211.063C441.833 210.396 442.167 209.73 442.5 209.063C444.27 215.692 445.77 215.692 447 209.063C446 209.063 445 209.063 444 209.063C443.915 206.634 442.915 204.634 441 203.063C441.333 202.396 441.667 201.73 442 201.063C439.707 199.937 437.54 198.604 435.5 197.063C435.006 195.429 434.84 193.762 435 192.063C433.627 192.22 432.293 192.053 431 191.563C431.691 190.496 432.191 189.329 432.5 188.063C433.218 189.014 434.051 189.18 435 188.563C436.118 187.489 437.118 186.323 438 185.063C440.72 186.328 442.72 185.495 444 182.563C441.569 182.311 439.235 182.811 437 184.063C435.399 183.528 434.899 182.528 435.5 181.063C437.056 180.043 438.222 178.71 439 177.063C438.667 176.396 438.333 175.73 438 175.063C436.561 176.923 434.895 178.59 433 180.063C432.258 178.455 432.091 176.788 432.5 175.063C431.433 175.754 430.266 176.254 429 176.563C430.094 180.554 429.094 181.054 426 178.063C439.385 163.677 453.385 150.01 468 137.063Z" fill="#E66E06"/>
<path fill-rule="evenodd" clip-rule="evenodd" d="M467 135.063C467.333 135.73 467.667 136.396 468 137.063C453.385 150.01 439.385 163.677 426 178.063C423 180.396 420.333 183.063 418 186.063C417.333 186.063 417 185.73 417 185.063C433.333 168.063 450 151.396 467 135.063Z" fill="#D8802C"/>
<path fill-rule="evenodd" clip-rule="evenodd" d="M140 191.063C134.794 199.477 130.127 208.144 126 217.063C124.337 219.056 123.17 221.389 122.5 224.063C122.086 223.606 121.586 223.272 121 223.063C120.333 224.396 119.667 225.73 119 227.063C117.762 224.926 115.929 223.592 113.5 223.063C113.14 228.472 112.306 233.806 111 239.063C111.667 240.396 112.333 241.73 113 243.063C112.667 245.396 111.667 245.73 110 244.063C108.229 244.598 107.896 245.432 109 246.563C104.998 247.126 103.331 245.293 104 241.063C99.0002 241.063 94.0002 241.063 89.0002 241.063C89.0002 242.73 89.0002 244.396 89.0002 246.063C85.6042 245.93 85.2712 244.93 88.0002 243.063C86.0002 241.73 84.0002 241.73 82.0002 243.063C84.7292 244.93 84.3962 245.93 81.0002 246.063C80.8352 242.713 81.0022 239.38 81.5002 236.063C83.3482 233.522 85.8482 232.522 89.0002 233.063C89.0002 229.73 89.0002 226.396 89.0002 223.063C86.3332 223.063 83.6672 223.063 81.0002 223.063C81.1642 225.75 80.9972 228.417 80.5002 231.063C78.1182 229.304 75.9522 227.304 74.0002 225.063C73.0342 226.959 72.7012 228.959 73.0002 231.063C62.3332 231.73 62.3332 232.396 73.0002 233.063C73.0002 234.063 73.0002 235.063 73.0002 236.063C69.7892 235.575 66.9562 236.242 64.5002 238.063C62.6172 236.91 61.7842 235.244 62.0002 233.063C60.6672 233.063 59.3332 233.063 58.0002 233.063C57.6092 238.592 57.6092 243.925 58.0002 249.063C57.7602 245.423 56.0942 242.757 53.0002 241.063C49.6072 242.626 48.2742 245.292 49.0002 249.063C48.0002 249.063 47.0002 249.063 46.0002 249.063C46.0002 246.396 46.0002 243.73 46.0002 241.063C45.0002 241.063 44.0002 241.063 43.0002 241.063C41.6882 238.539 41.1882 235.872 41.5002 233.063C44.1292 234.288 46.6292 233.955 49.0002 232.063C45.3332 231.396 41.6672 230.73 38.0002 230.063C42.5662 229.181 46.9002 228.848 51.0002 229.063C50.5232 228.085 49.8572 227.252 49.0002 226.563C44.5972 226.499 40.2642 226.332 36.0002 226.063C42.4822 224.284 42.4822 222.95 36.0002 222.063C41.7802 220.52 47.7802 219.52 54.0002 219.063C59.9992 218.074 66.3322 217.407 73.0002 217.063C73.0002 214.396 73.0002 211.73 73.0002 209.063C77.0002 208.73 77.0002 208.396 73.0002 208.063C73.0612 205.971 74.0612 204.471 76.0002 203.563C74.8762 203.314 73.8762 202.814 73.0002 202.063C75.1352 200.918 77.3012 200.918 79.5002 202.063C82.5222 200.681 85.6892 199.681 89.0002 199.063C86.4142 198.083 83.7472 197.75 81.0002 198.063C81.0002 197.063 81.0002 196.063 81.0002 195.063C83.6872 195.227 86.3542 195.06 89.0002 194.563C83.2792 193.973 77.6122 193.14 72.0002 192.063C70.0412 193.311 68.5412 194.978 67.5002 197.063C65.4292 195.108 64.7622 192.775 65.5002 190.063C66.7612 186.743 68.4282 186.409 70.5002 189.063C70.0542 186.68 68.8882 184.513 67.0002 182.563C67.6672 181.563 68.3332 180.563 69.0002 179.563C75.6262 177.732 82.2932 177.232 89.0002 178.063C88.6042 175.519 89.2712 173.352 91.0002 171.563C90.3332 170.896 89.6672 170.23 89.0002 169.563C92.6522 169.064 96.3182 168.898 100 169.063C100 171.73 100 174.396 100 177.063C101 177.063 102 177.063 103 177.063C102.687 174.316 103.02 171.649 104 169.063C104.667 172.396 105.333 175.73 106 179.063C108.099 177.029 110.432 176.695 113 178.063C112.187 179.377 111.187 180.544 110 181.563C110.948 182.046 111.948 182.212 113 182.063C113 183.063 113 184.063 113 185.063C116.74 184.804 120.406 185.137 124 186.063C124.667 188.73 125.333 191.396 126 194.063C126.974 191.82 127.308 189.487 127 187.063C128.333 187.063 129.667 187.063 131 187.063C131 186.063 131 185.063 131 184.063C129.627 184.22 128.293 184.053 127 183.563C128.607 182.514 129.273 181.014 129 179.063C131.59 179.167 133.923 178.5 136 177.063C137.83 177.143 139.163 177.976 140 179.563C138.977 181.74 138.81 183.907 139.5 186.063C138.585 186.891 137.919 187.891 137.5 189.063C136.082 187.2 134.249 186.7 132 187.563C131.189 189.668 130.189 191.668 129 193.563C129.509 194.732 130.342 195.565 131.5 196.063C132.667 194.23 133.833 192.396 135 190.563C136.697 190.179 138.363 190.345 140 191.063Z" fill="#E76E06"/>
<path fill-rule="evenodd" clip-rule="evenodd" d="M62.0002 192.063C62.0382 194.744 61.3712 197.244 60.0002 199.563C60.7052 200.985 61.0392 202.318 61.0002 203.563C56.3972 207.61 54.0632 212.776 54.0002 219.063C47.7802 219.52 41.7802 220.52 36.0002 222.063C24.7872 222.29 14.1202 224.624 4.00024 229.063C5.12624 227.11 6.79224 225.61 9.00024 224.563C23.3172 222.121 37.6502 219.788 52.0002 217.563C54.8632 208.794 58.1962 200.294 62.0002 192.063Z" fill="#CD601D"/>
<path fill-rule="evenodd" clip-rule="evenodd" d="M126 217.063C124.988 221.078 123.988 225.078 123 229.063C118.799 239.202 116.299 249.868 115.5 261.063C114.833 271.73 114.833 282.396 115.5 293.063C116.078 299.971 117.244 306.637 119 313.063C122.931 330.911 129.598 347.578 139 363.063C123 379.73 106.667 396.063 90.0003 412.063C86.2193 407.939 83.2193 403.272 81.0003 398.063C76.5853 388.898 71.9183 379.898 67.0003 371.063C61.1733 359.927 56.5063 348.261 53.0003 336.063C44.8943 335.156 36.8942 333.823 29.0002 332.063C28.8892 331.446 28.5562 330.946 28.0002 330.563C20.9653 329.554 13.9653 328.387 7.00025 327.063C4.89725 324.29 3.06325 321.29 1.50025 318.063C0.83325 290.396 0.83325 262.73 1.50025 235.063C2.15525 232.935 2.98925 230.935 4.00025 229.063C14.1202 224.624 24.7873 222.29 36.0003 222.063C42.4823 222.95 42.4823 224.284 36.0003 226.063C40.2643 226.332 44.5973 226.499 49.0003 226.563C49.8573 227.252 50.5233 228.085 51.0003 229.063C46.9003 228.848 42.5663 229.181 38.0003 230.063C41.6673 230.73 45.3333 231.396 49.0003 232.063C46.6293 233.955 44.1293 234.288 41.5003 233.063C41.1883 235.872 41.6883 238.539 43.0003 241.063C44.0003 241.063 45.0003 241.063 46.0003 241.063C46.0003 243.73 46.0003 246.396 46.0003 249.063C47.0003 249.063 48.0003 249.063 49.0003 249.063C48.2743 245.292 49.6073 242.626 53.0003 241.063C56.0943 242.757 57.7603 245.423 58.0003 249.063C57.6093 243.925 57.6093 238.592 58.0003 233.063C59.3333 233.063 60.6673 233.063 62.0003 233.063C61.7843 235.244 62.6173 236.91 64.5003 238.063C66.9563 236.242 69.7893 235.575 73.0003 236.063C73.0003 235.063 73.0003 234.063 73.0003 233.063C62.3333 232.396 62.3333 231.73 73.0003 231.063C72.7013 228.959 73.0343 226.959 74.0003 225.063C75.9523 227.304 78.1183 229.304 80.5003 231.063C80.9973 228.417 81.1643 225.75 81.0003 223.063C83.6673 223.063 86.3333 223.063 89.0003 223.063C89.0003 226.396 89.0003 229.73 89.0003 233.063C85.8483 232.522 83.3483 233.522 81.5003 236.063C81.0023 239.38 80.8353 242.713 81.0003 246.063C84.3963 245.93 84.7293 244.93 82.0003 243.063C84.0003 241.73 86.0003 241.73 88.0003 243.063C85.2713 244.93 85.6043 245.93 89.0003 246.063C89.0003 244.396 89.0003 242.73 89.0003 241.063C94.0003 241.063 99.0003 241.063 104 241.063C103.331 245.293 104.998 247.126 109 246.563C107.896 245.432 108.229 244.598 110 244.063C111.667 245.73 112.667 245.396 113 243.063C112.333 241.73 111.667 240.396 111 239.063C112.306 233.806 113.14 228.472 113.5 223.063C115.929 223.592 117.762 224.926 119 227.063C119.667 225.73 120.333 224.396 121 223.063C121.586 223.272 122.086 223.606 122.5 224.063C123.17 221.389 124.337 219.056 126 217.063Z" fill="#E76C07"/>
<path fill-rule="evenodd" clip-rule="evenodd" d="M430 207.063C430.876 206.932 431.543 207.265 432 208.063C438.001 219.066 442.001 230.733 444 243.063C441.044 231.531 436.711 220.531 431 210.063C430.943 208.954 430.61 207.954 430 207.063Z" fill="#C45A19"/>
<path fill-rule="evenodd" clip-rule="evenodd" d="M4.00025 229.063C2.98925 230.935 2.15525 232.935 1.50025 235.063C0.83325 262.73 0.83325 290.396 1.50025 318.063C3.06325 321.29 4.89725 324.29 7.00025 327.063C3.67725 325.461 1.51125 322.794 0.50025 319.063C-0.16675 290.396 -0.16675 261.73 0.50025 233.063C1.16025 231.239 2.32725 229.906 4.00025 229.063Z" fill="#B84F15"/>
<path fill-rule="evenodd" clip-rule="evenodd" d="M99.0002 257.063C100.314 259.458 100.314 261.958 99.0002 264.563C99.9482 265.046 100.948 265.212 102 265.063C101.687 262.316 102.02 259.649 103 257.063C103.352 260.213 104.018 263.546 105 267.063C98.5342 267.273 98.5342 267.94 105 269.063C104.71 273.117 105.377 273.617 107 270.563C105.57 268.683 105.904 267.183 108 266.063C109.455 270.159 111.122 273.493 113 276.063C108.815 277.091 107.148 279.758 108 284.063C108.167 285.73 108.333 287.396 108.5 289.063C108.913 286.331 109.58 283.664 110.5 281.063C113.467 289.412 115.3 298.079 116 307.063C115.667 308.73 115.333 310.396 115 312.063C113.498 312.646 112.165 313.479 111 314.563C110.58 318.35 111.247 322.184 113 326.063C112.254 329.695 111.921 333.361 112 337.063C113.052 337.212 114.052 337.046 115 336.563C113.89 333.826 113.723 330.992 114.5 328.063C117.601 329.513 119.601 328.513 120.5 325.063C122.187 330.123 123.853 335.123 125.5 340.063C126.187 342.131 126.02 344.131 125 346.063C125.763 347.282 126.763 348.282 128 349.063C127.667 349.396 127.333 349.73 127 350.063C125.045 349.11 123.378 347.776 122 346.063C123.013 343.183 122.846 340.183 121.5 337.063C119.992 340.909 119.825 344.742 121 348.563C118.065 348.664 116.731 350.164 117 353.063C118.015 355.737 119.015 358.404 120 361.063C117.908 361.002 116.408 360.002 115.5 358.063C114.585 358.891 113.919 359.891 113.5 361.063C112.747 357.736 111.247 357.736 109 361.063C107.981 359.876 106.814 358.876 105.5 358.063C105.167 360.73 104.833 363.396 104.5 366.063C101.2 368.12 101.367 369.12 105 369.063C106.157 371.911 105.824 374.411 104 376.563C98.1742 376.705 92.5082 377.538 87.0002 379.063C88.3762 375.905 89.0422 372.572 89.0002 369.063C86.7132 369.287 84.5472 369.954 82.5002 371.063C76.3682 369.883 75.8682 368.05 81.0002 365.563C83.3332 365.23 85.6672 364.896 88.0002 364.563C87.3922 363.693 86.5592 363.193 85.5002 363.063C81.8082 364.758 78.6412 364.092 76.0002 361.063C75.0202 358.477 74.6872 355.81 75.0002 353.063C77.0272 353.225 79.0272 353.058 81.0002 352.563C77.6352 352.249 74.4692 352.082 71.5002 352.063C69.4792 355.422 66.9792 358.422 64.0002 361.063C59.6822 352.775 56.3482 344.108 54.0002 335.063C59.4142 334.539 64.5812 335.205 69.5002 337.063C71.0632 336.461 70.8962 335.628 69.0002 334.563C67.7072 334.073 66.3732 333.906 65.0002 334.063C64.8302 332.741 65.1632 331.574 66.0002 330.563C69.2112 329.41 72.5442 328.743 76.0002 328.563C75.1672 327.73 74.3332 326.896 73.5002 326.063C73.0012 321.742 72.8342 317.409 73.0002 313.063C76.2882 313.49 79.2882 312.823 82.0002 311.063C82.9562 312.451 83.9562 313.784 85.0002 315.063C87.4722 313.571 90.1392 312.905 93.0002 313.063C93.2102 316.533 94.3772 316.533 96.5002 313.063C96.9942 311.429 97.1602 309.762 97.0002 308.063C94.3332 308.063 91.6672 308.063 89.0002 308.063C88.8332 311.52 87.8332 311.853 86.0002 309.063C86.7632 307.844 87.7632 306.844 89.0002 306.063C88.1752 305.177 87.1752 304.844 86.0002 305.063C85.6872 302.316 86.0202 299.649 87.0002 297.063C88.1472 304.984 88.9802 304.984 89.5002 297.063C89.9972 299.709 90.1642 302.376 90.0002 305.063C91.0002 305.063 92.0002 305.063 93.0002 305.063C93.2402 301.984 92.9072 298.984 92.0002 296.063C93.5462 294.879 95.2132 293.879 97.0002 293.063C96.3332 292.73 95.6672 292.396 95.0002 292.063C90.5312 294.014 85.8652 295.014 81.0002 295.063C81.0002 293.73 81.0002 292.396 81.0002 291.063C83.7472 291.376 86.4142 291.043 89.0002 290.063C83.4572 289.524 80.7902 286.524 81.0002 281.063C85.1702 280.556 88.1702 282.222 90.0002 286.063C90.9522 284.518 91.2852 282.851 91.0002 281.063C89.6272 281.22 88.2932 281.053 87.0002 280.563C88.6552 279.119 89.3222 277.285 89.0002 275.063C91.3262 274.412 93.6592 273.745 96.0002 273.063C98.1932 273.427 100.027 274.427 101.5 276.063C102.138 272.633 100.638 271.3 97.0002 272.063C97.1122 266.949 97.7792 261.949 99.0002 257.063Z" fill="#E76E06"/>
<path fill-rule="evenodd" clip-rule="evenodd" d="M444 243.063C445.719 247.805 446.886 252.805 447.5 258.063C447.699 272.755 448.199 287.422 449 302.063C448.53 305.113 447.697 305.446 446.5 303.063C445.759 306.125 445.925 309.125 447 312.063C446.175 312.949 445.175 313.282 444 313.063C442.8 320.531 440.966 327.864 438.5 335.063C437.64 338.196 436.14 340.863 434 343.063C446.968 310.721 450.301 277.387 444 243.063Z" fill="#CE6221"/>
<path fill-rule="evenodd" clip-rule="evenodd" d="M7.00024 327.063C13.9652 328.387 20.9652 329.554 28.0002 330.563C28.5562 330.946 28.8892 331.446 29.0002 332.063C23.3442 331.232 17.6772 330.398 12.0002 329.563C10.0092 329.189 8.34224 328.356 7.00024 327.063Z" fill="#C56020"/>
<path fill-rule="evenodd" clip-rule="evenodd" d="M554 328.063C552.024 329.574 549.691 330.407 547 330.563C534.303 332.377 521.636 334.377 509 336.563C507.719 337.972 506.719 339.472 506 341.063C505.366 337.647 506.7 335.647 510 335.063C524.712 332.722 539.378 330.388 554 328.063Z" fill="#C76026"/>
<path fill-rule="evenodd" clip-rule="evenodd" d="M67.0002 371.063C71.9182 379.898 76.5852 388.898 81.0002 398.063C75.0412 389.814 70.3742 380.814 67.0002 371.063Z" fill="#C75E22"/>
<path fill-rule="evenodd" clip-rule="evenodd" d="M558 229.063C559.304 230.55 560.47 232.217 561.5 234.063C562.317 263.438 562.15 292.772 561 322.063C559.286 324.776 556.953 326.776 554 328.063C539.378 330.388 524.712 332.722 510 335.063C506.7 335.647 505.366 337.647 506 341.063C500.148 361.768 491.815 381.435 481 400.063C487.005 408.723 493.338 417.056 500 425.063C502.249 429.161 504.749 433.161 507.5 437.063C508.167 440.396 508.167 443.73 507.5 447.063C501.495 453.9 495.329 460.567 489 467.063C475.839 479.391 463.173 492.224 451 505.563C445.139 510.587 438.806 511.254 432 507.563C420.167 498.396 408.333 489.23 396.5 480.063C386.71 485.037 376.876 489.703 367 494.063C358.727 496.987 350.394 499.821 342 502.563C339.956 508.712 338.289 514.878 337 521.063C334.525 530.197 332.359 539.53 330.5 549.063C328.937 552.291 326.437 554.458 323 555.563C295 556.23 267 556.23 239 555.563C236.53 554.574 234.197 553.408 232 552.063C230.09 550.588 228.924 548.588 228.5 546.063C225.953 531.737 223.453 517.404 221 503.063C220.923 501.813 220.256 500.98 219 500.563C211.658 498.729 204.658 496.229 198 493.063C198.06 492.52 198.393 492.187 199 492.063C201.529 493.523 204.196 494.023 207 493.563C204.655 491.78 201.988 490.78 199 490.563C200.333 489.896 200.333 489.23 199 488.563C202.41 489.085 205.577 488.251 208.5 486.063C208.833 487.396 209.167 488.73 209.5 490.063C210.339 488.939 211.506 488.272 213 488.063C215.841 490.329 218.841 491.663 222 492.063C224.557 488.874 225.557 485.208 225 481.063C219.625 481.391 214.292 481.058 209 480.063C211.586 479.083 214.253 478.75 217 479.063C217 477.063 217 475.063 217 473.063C214.253 473.376 211.586 473.043 209 472.063C210.5 471.73 212 471.396 213.5 471.063C217.309 471.885 221.142 472.551 225 473.063C225.781 478.079 226.781 483.079 228 488.063C230.129 489.858 232.129 491.692 234 493.563C233.283 495.094 232.283 496.427 231 497.563C233.15 502.588 236.817 504.088 242 502.063C244.041 502.799 246.041 503.632 248 504.563C246.333 504.896 244.667 505.23 243 505.563C247.133 512.268 249.133 512.101 249 505.063C251.667 505.063 254.333 505.063 257 505.063C257 503.396 257 501.73 257 500.063C258 500.063 259 500.063 260 500.063C260.14 498.439 259.473 497.273 258 496.563C259.286 494.541 260.286 492.374 261 490.063C259.667 489.396 258.333 488.73 257 488.063C259.667 486.73 262.333 486.73 265 488.063C263.139 490.451 261.806 493.117 261 496.063C262.189 496.992 263.522 497.325 265 497.063C265 496.063 265 495.063 265 494.063C269.46 494.678 273.46 493.678 277 491.063C279.497 491.498 280.663 492.832 280.5 495.063C279.415 494.27 278.248 493.603 277 493.063C274.769 494.466 272.436 495.633 270 496.563C270.948 497.046 271.948 497.212 273 497.063C273 499.73 273 502.396 273 505.063C274 505.063 275 505.063 276 505.063C276 502.396 276 499.73 276 497.063C277.667 497.063 279.333 497.063 281 497.063C280.687 499.81 281.02 502.477 282 505.063C283.168 502.094 284.501 501.761 286 504.063C287.578 504.861 289.244 505.361 291 505.563C288.896 507.399 288.562 509.565 290 512.063C291.236 512.809 292.57 513.142 294 513.063C294 514.063 294 515.063 294 516.063C298.364 516.191 299.364 514.858 297 512.063C298.806 509.16 301.473 507.826 305 508.063C305 504.396 305 500.73 305 497.063C301.229 497.789 298.563 496.456 297 493.063C297.51 491.475 298.51 490.308 300 489.563C297.814 488.959 297.648 487.793 299.5 486.063C300.408 488.002 301.908 489.002 304 489.063C304 488.063 304 487.063 304 486.063C305.478 486.325 306.811 485.992 308 485.063C307.211 483.075 306.045 482.742 304.5 484.063C304.017 483.115 303.851 482.115 304 481.063C301.908 481.124 300.408 482.124 299.5 484.063C299.035 482.632 298.201 481.466 297 480.563C301.063 480.047 305.063 479.214 309 478.063C310.728 478.153 312.394 478.486 314 479.063C316.651 477.148 316.317 475.648 313 474.563C310.354 474.066 307.687 473.899 305 474.063C305 473.063 305 472.063 305 471.063C310.359 471.233 315.692 471.733 321 472.563C320 472.896 319 473.23 318 473.563C322 475.896 322 478.23 318 480.563C321.833 481.932 321.499 482.766 317 483.063C315.18 482.914 313.68 482.247 312.5 481.063C310.793 483.472 309.96 486.138 310 489.063C306.543 489.23 306.21 490.23 309 492.063C310.219 491.3 311.219 490.3 312 489.063C313.354 491.63 313.02 493.964 311 496.063C314.268 497.05 317.602 497.383 321 497.063C321 494.396 321 491.73 321 489.063C322.667 489.063 324.333 489.063 326 489.063C325.535 493.355 326.368 497.355 328.5 501.063C330.555 499.891 331.222 498.224 330.5 496.063C328.892 496.996 328.059 496.33 328 494.063C328.554 491.935 329.887 490.435 332 489.563C328.536 486.758 328.202 483.592 331 480.063C328.563 475.736 329.229 471.736 333 468.063C334.184 469.609 335.184 471.276 336 473.063C338.798 471.61 341.798 470.61 345 470.063C342.414 469.083 339.747 468.75 337 469.063C337 468.063 337 467.063 337 466.063C339.667 466.063 342.333 466.063 345 466.063C345 465.063 345 464.063 345 463.063C347.667 463.063 350.333 463.063 353 463.063C352.851 462.011 353.017 461.011 353.5 460.063C355.667 460.896 357.167 462.396 358 464.563C358.948 465.046 359.948 465.212 361 465.063C361 463.396 361 461.73 361 460.063C363.667 460.063 366.333 460.063 369 460.063C369.253 457.736 368.586 455.736 367 454.063C367.811 453.347 368.478 452.513 369 451.563C368.505 449.554 368.505 447.387 369 445.063C347.677 444.064 347.677 443.064 369 442.063C365.994 440.815 362.994 440.815 360 442.063C357.56 441.325 355.56 439.992 354 438.063C352.012 438.852 351.679 440.018 353 441.563C347.731 441.364 342.397 441.531 337 442.063C337 444.063 337 446.063 337 448.063C340.682 447.898 344.348 448.064 348 448.563C347.375 451.363 346.708 454.197 346 457.063C345.367 452.912 343.033 450.245 339 449.063C332.142 449.587 325.475 450.42 319 451.563C318.543 451.149 318.209 450.649 318 450.063C319.022 449.209 319.855 448.209 320.5 447.063C325.018 448.97 329.852 449.637 335 449.063C335 446.73 335 444.396 335 442.063C333.333 442.063 331.667 442.063 330 442.063C330 441.063 330 440.063 330 439.063C327.175 438.644 325.009 439.644 323.5 442.063C320.401 441.608 317.401 441.608 314.5 442.063C311.518 443.605 308.351 444.772 305 445.563C306 445.896 307 446.23 308 446.563C305.944 446.874 303.944 447.374 302 448.063C301.022 447.586 300.189 446.92 299.5 446.063C299.167 446.396 298.833 446.73 298.5 447.063C297.367 445.352 295.867 444.852 294 445.563C294.662 446.895 295.828 448.061 297.5 449.063C299.998 448.442 302.332 449.108 304.5 451.063C306.593 448.546 309.76 447.212 314 447.063C314.143 448.825 313.809 450.492 313 452.063C309.378 452.888 305.711 453.388 302 453.563C301.163 454.574 300.83 455.741 301 457.063C298.381 457.331 295.881 456.998 293.5 456.063C292.8 457.595 291.634 458.595 290 459.063C289.589 458.301 289.423 457.301 289.5 456.063C288.607 455.482 287.607 455.148 286.5 455.063C283.91 456.024 281.243 456.691 278.5 457.063C274.761 455.553 271.427 454.887 268.5 455.063C266.434 457.861 264.934 457.528 264 454.063C268.973 452.622 273.807 452.955 278.5 455.063C280.841 454.556 281.341 453.389 280 451.563C273.365 452.102 267.198 450.602 261.5 447.063C259.737 447.538 258.07 448.205 256.5 449.063C254.06 448.292 251.56 448.125 249 448.563C249.667 448.23 250.333 447.896 251 447.563C249.544 447.14 249.044 446.307 249.5 445.063C251.226 446.139 253.059 446.306 255 445.563C251.145 443.502 247.145 441.835 243 440.563C244.333 440.23 245.667 439.896 247 439.563C245.333 438.896 243.667 438.896 242 439.563C240.86 441.536 239.527 443.37 238 445.063C238.813 446.377 239.813 447.544 241 448.563C238.354 449.06 235.687 449.227 233 449.063C233 451.73 233 454.396 233 457.063C235.667 457.063 238.333 457.063 241 457.063C241 459.73 241 462.396 241 465.063C246.429 466.472 242.763 466.305 230 464.563C231.218 463.125 231.885 461.458 232 459.563C231.214 456.105 230.88 452.605 231 449.063C228.356 449.403 226.023 448.736 224 447.063C216.511 449.942 208.844 450.942 201 450.063C203.394 449.214 205.727 448.214 208 447.063C208.716 447.874 209.55 448.541 210.5 449.063C215.059 446.881 219.893 445.547 225 445.063C224.83 443.741 225.163 442.574 226 441.563C225.333 441.23 224.667 440.896 224 440.563C225.785 439.4 227.785 438.733 230 438.563C230.837 437.552 231.17 436.385 231 435.063C226.35 433.555 221.683 432.388 217 431.563C215.859 432.304 215.859 433.138 217 434.063C218.859 435.755 220.859 437.255 223 438.563C221.734 438.872 220.567 439.372 219.5 440.063C217.834 439.223 217.667 439.723 219 441.563C217.027 442.058 215.027 442.225 213 442.063C213 441.063 213 440.063 213 439.063C217.931 438.917 218.264 437.584 214 435.063C212.333 435.73 210.667 436.396 209 437.063C206.667 436.73 206.333 435.73 208 434.063C207.5 433.73 207 433.396 206.5 433.063C204.81 432.414 202.977 432.414 201 433.063C200.843 434.436 201.01 435.77 201.5 437.063C202.973 436.695 204.473 437.195 206 438.563C206.837 439.574 207.17 440.741 207 442.063C203.902 441.976 203.568 442.476 206 443.563C203.121 445.896 201.121 445.396 200 442.063C197.502 440.625 195.336 440.959 193.5 443.063C192.79 441.59 191.624 440.923 190 441.063C189.333 451.73 188.667 451.73 188 441.063C187 441.063 186 441.063 185 441.063C184.835 444.413 185.002 447.746 185.5 451.063C186.425 451.61 187.258 452.276 188 453.063C186.018 453.779 184.351 454.946 183 456.563C177.865 456.483 173.031 457.316 168.5 459.063C166.089 456.458 163.589 456.458 161 459.063C158.103 456.314 155.437 456.481 153 459.563C154.662 462.738 153.995 465.238 151 467.063C150.419 464.968 150.419 463.135 151 461.563C148.018 460.996 145.185 461.496 142.5 463.063C140.967 462.79 139.467 462.457 138 462.063C134.044 460.078 130.378 457.578 127 454.563C125.127 452.859 123.46 451.026 122 449.063C121.872 446.908 122.372 444.908 123.5 443.063C136.589 430.477 149.089 417.477 161 404.063C163.262 400.932 166.262 399.432 170 399.563C181.148 409.548 193.481 417.715 207 424.063C227.031 434.29 248.365 440.29 271 442.063C287.621 443.614 304.288 442.781 321 439.563C322.071 438.711 323.071 437.878 324 437.063C331.778 435.642 339.445 433.475 347 430.563C349.084 429.866 350.751 428.699 352 427.063C357.166 424.315 362.166 421.315 367 418.063C388.904 405.493 406.571 388.493 420 367.063C425.69 359.687 430.356 351.687 434 343.063C436.14 340.863 437.64 338.196 438.5 335.063C440.966 327.864 442.8 320.531 444 313.063C445.175 313.282 446.175 312.949 447 312.063C445.925 309.125 445.759 306.125 446.5 303.063C447.697 305.446 448.53 305.113 449 302.063C448.199 287.422 447.699 272.755 447.5 258.063C446.886 252.805 445.719 247.805 444 243.063C442.001 230.733 438.001 219.066 432 208.063C431.543 207.265 430.876 206.932 430 207.063C426.253 199.9 422.253 192.9 418 186.063C420.333 183.063 423 180.396 426 178.063C429.094 181.054 430.094 180.554 429 176.563C430.266 176.254 431.433 175.754 432.5 175.063C432.091 176.788 432.258 178.455 433 180.063C434.895 178.59 436.561 176.923 438 175.063C438.333 175.73 438.667 176.396 439 177.063C438.222 178.71 437.056 180.043 435.5 181.063C434.899 182.528 435.399 183.528 437 184.063C439.235 182.811 441.569 182.311 444 182.563C442.72 185.495 440.72 186.328 438 185.063C437.118 186.323 436.118 187.489 435 188.563C434.051 189.18 433.218 189.014 432.5 188.063C432.191 189.329 431.691 190.496 431 191.563C432.293 192.053 433.627 192.22 435 192.063C434.84 193.762 435.006 195.429 435.5 197.063C437.54 198.604 439.707 199.937 442 201.063C441.667 201.73 441.333 202.396 441 203.063C442.915 204.634 443.915 206.634 444 209.063C445 209.063 446 209.063 447 209.063C445.77 215.692 444.27 215.692 442.5 209.063C442.167 209.73 441.833 210.396 441.5 211.063C440.403 209.51 439.07 208.177 437.5 207.063C436.833 205.73 436.833 204.396 437.5 203.063C437.833 203.396 438.167 203.73 438.5 204.063C439.117 201.387 438.284 200.72 436 202.063C435.313 200.008 434.146 198.342 432.5 197.063C432 198.063 431.5 199.063 431 200.063C432.752 203.976 435.085 207.476 438 210.563C437.667 210.896 437.333 211.23 437 211.563C439.307 211.917 439.641 212.917 438 214.563C439.333 215.896 440.667 217.23 442 218.563C439.54 221.562 439.874 224.395 443 227.063C444.211 226.289 444.211 225.456 443 224.563C443.608 223.693 444.441 223.193 445.5 223.063C449.138 224.748 452.971 225.414 457 225.063C457 226.73 457 228.396 457 230.063C458.846 229.785 460.18 230.452 461 232.063C459.449 234.922 458.449 237.922 458 241.063C463.637 240.17 469.304 239.337 475 238.563C473.527 237.853 472.86 236.687 473 235.063C475.427 235.086 477.76 235.586 480 236.563C480.837 237.574 481.17 238.741 481 240.063C479.397 239.875 478.063 240.375 477 241.563C478.635 243.311 480.635 244.478 483 245.063C480.635 245.648 478.635 246.815 477 248.563C475 248.896 473 249.23 471 249.563C474.465 250.886 477.799 252.386 481 254.063C479.547 257.549 478.881 261.216 479 265.063C477.948 264.914 476.948 265.08 476 265.563C477.941 266.306 479.774 266.139 481.5 265.063C482.089 267.426 483.589 268.426 486 268.063C486 267.063 486 266.063 486 265.063C488.573 266.056 491.24 266.889 494 267.563C491.947 268.643 489.78 269.477 487.5 270.063C486.586 273.705 485.752 277.371 485 281.063C484.02 278.477 483.687 275.81 484 273.063C483 273.063 482 273.063 481 273.063C481 272.063 481 271.063 481 270.063C478.451 270.176 476.118 269.509 474 268.063C472.976 269.416 471.643 270.083 470 270.063C470 271.063 470 272.063 470 273.063C468.333 273.063 466.667 273.063 465 273.063C465 271.396 465 269.73 465 268.063C462.126 267.5 459.46 266.5 457 265.063C456.797 262.925 455.797 261.258 454 260.063C457.215 259.115 457.548 257.782 455 256.063C457.336 254.851 459.503 255.184 461.5 257.063C462.819 256.244 463.985 255.244 465 254.063C463.913 253.458 462.746 253.791 461.5 255.063C459.978 253.541 458.478 252.041 457 250.563C457.235 249.69 457.569 248.856 458 248.063C454.73 243.201 454.397 238.201 457 233.063C456.667 232.396 456.333 231.73 456 231.063C454.976 232.416 453.643 233.083 452 233.063C453.518 239.662 452.184 245.662 448 251.063C448.299 254.385 449.965 256.385 453 257.063C453.417 254.484 452.75 252.317 451 250.563C452.366 248.963 453.366 247.13 454 245.063C454.744 246.554 455.41 248.054 456 249.563C454.782 254.732 452.949 259.565 450.5 264.063C449.691 270.312 449.858 276.479 451 282.563C449.612 286.028 449.279 289.528 450 293.063C452.273 287.29 453.606 281.29 454 275.063C452.537 272.617 452.704 270.283 454.5 268.063C454.833 270.73 455.167 273.396 455.5 276.063C456.472 272.331 456.972 272.664 457 277.063C456.537 281.977 456.537 286.977 457 292.063C453.501 291.822 453.168 292.655 456 294.563C453.045 298.66 452.378 303.16 454 308.063C454.773 305.75 455.44 303.417 456 301.063C457 299.73 458 299.73 459 301.063C458.254 302.299 457.921 303.633 458 305.063C459.333 305.063 460.667 305.063 462 305.063C461.851 306.115 462.017 307.115 462.5 308.063C465.043 306.687 465.209 305.52 463 304.563C465.955 302.272 468.288 302.772 470 306.063C466.062 309.71 467.062 311.377 473 311.063C473 307.73 473 304.396 473 301.063C475.667 301.063 478.333 301.063 481 301.063C481 300.063 481 299.063 481 298.063C477.772 297.862 474.605 298.196 471.5 299.063C469.573 297.702 467.406 296.869 465 296.563C466.123 295.519 467.456 294.853 469 294.563C467.937 293.375 466.603 292.875 465 293.063C465 292.063 465 291.063 465 290.063C466.842 289.84 468.675 289.506 470.5 289.063C474.365 289.844 477.865 291.177 481 293.063C481 294.063 481 295.063 481 296.063C477.328 296.608 477.662 296.941 482 297.063C483.041 294.105 483.041 291.105 482 288.063C487.355 287.506 492.688 286.839 498 286.063C499 286.396 499.667 287.063 500 288.063C497.343 288.822 494.677 289.489 492 290.063C491.333 289.73 490.667 289.396 490 289.063C489.02 291.649 488.687 294.316 489 297.063C490.052 297.212 491.052 297.046 492 296.563C491.163 295.552 490.83 294.385 491 293.063C493.998 292.812 496.498 293.812 498.5 296.063C501.763 294.813 504.93 293.48 508 292.063C508 291.063 508 290.063 508 289.063C506 289.396 504 289.73 502 290.063C501.722 288.217 502.389 286.883 504 286.063C506.859 287.614 509.859 288.614 513 289.063C513.107 283.634 510.44 281.301 505 282.063C505.008 279.018 505.341 276.018 506 273.063C502.955 273.055 499.955 272.722 497 272.063C497 271.063 497 270.063 497 269.063C498.603 269.251 499.937 268.751 501 267.563C499.456 267.273 498.123 266.607 497 265.563C500.403 264.64 503.236 265.473 505.5 268.063C506.245 266.573 507.412 265.573 509 265.063C510.66 266.35 512.326 267.683 514 269.063C516.247 268.189 518.58 267.855 521 268.063C521.14 269.687 520.473 270.853 519 271.563C522.938 273.702 526.771 273.535 530.5 271.063C532.11 273.052 533.943 273.385 536 272.063C537.016 268.058 536.183 264.391 533.5 261.063C533.304 262.849 532.471 264.182 531 265.063C529.71 262.906 528.876 260.573 528.5 258.063C526 260.563 523.5 263.063 521 265.563C518.495 266.858 515.828 267.024 513 266.063C513 265.063 513 264.063 513 263.063C510.313 263.227 507.646 263.06 505 262.563C507.982 262.065 510.982 261.898 514 262.063C514.504 265.898 515.504 265.898 517 262.063C518.767 265.88 520.1 265.546 521 261.063C519.54 257.612 519.873 256.946 522 259.063C524 257.73 526 256.396 528 255.063C529.954 250.583 530.954 245.916 531 241.063C532.333 241.063 533.667 241.063 535 241.063C534.881 244.91 535.547 248.577 537 252.063C538 252.063 539 252.063 540 252.063C540 251.063 540 250.063 540 249.063C541.667 249.063 543.333 249.063 545 249.063C545.667 251.73 546.333 254.396 547 257.063C548.333 257.063 549.667 257.063 551 257.063C551.224 254.776 551.891 252.61 553 250.563C552.765 249.69 552.431 248.856 552 248.063C553 245.396 554 245.396 555 248.063C554.384 250.673 554.051 253.34 554 256.063C555.558 268.241 556.558 280.574 557 293.063C555.422 295.807 554.756 299.474 555 304.063C554.878 307.254 555.378 310.254 556.5 313.063C558.497 297.115 559.163 281.115 558.5 265.063C558.167 267.73 557.833 270.396 557.5 273.063C557.333 270.23 557.167 267.396 557 264.563C557.264 259.387 557.597 254.387 558 249.563C557.418 246.647 556.418 244.647 555 243.563C555.909 240.007 556.909 236.507 558 233.063C557 233.063 556 233.063 555 233.063C555.208 235.483 554.874 237.816 554 240.063C548.41 240.491 542.744 240.991 537 241.563C539.911 239.684 543.078 238.184 546.5 237.063C547.934 237.493 549.101 238.327 550 239.563C551 240.23 552 240.23 553 239.563C550.578 237.451 550.578 235.451 553 233.563C550.401 232.794 547.901 232.961 545.5 234.063C545.006 232.429 544.84 230.762 545 229.063C538.597 227.809 531.93 226.476 525 225.063C522.931 224.739 522.598 223.905 524 222.563C533.726 223.023 543.393 224.19 553 226.063C552.851 227.115 553.017 228.115 553.5 229.063C554.914 228.15 556.414 228.15 558 229.063Z" fill="#E76B07"/>
<path fill-rule="evenodd" clip-rule="evenodd" d="M161 404.063C149.089 417.477 136.589 430.477 123.5 443.063C122.372 444.908 121.872 446.908 122 449.063C120.736 446.791 120.902 444.458 122.5 442.063C135.202 429.194 148.035 416.528 161 404.063Z" fill="#CA642F"/>
<path fill-rule="evenodd" clip-rule="evenodd" d="M352 427.063C350.751 428.699 349.084 429.866 347 430.563C339.445 433.475 331.778 435.642 324 437.063C333.324 433.953 342.657 430.62 352 427.063Z" fill="#C75C1F"/>
<path fill-rule="evenodd" clip-rule="evenodd" d="M198 493.063C195.694 492.57 193.361 492.237 191 492.063C190.333 492.063 189.667 492.063 189 492.063C170.616 484.373 153.616 474.373 138 462.063C139.467 462.457 140.967 462.79 142.5 463.063C145.185 461.496 148.018 460.996 151 461.563C150.419 463.135 150.419 464.968 151 467.063C153.995 465.238 154.662 462.738 153 459.563C155.437 456.481 158.103 456.314 161 459.063C163.589 456.458 166.089 456.458 168.5 459.063C173.031 457.316 177.865 456.483 183 456.563C184.351 454.946 186.018 453.779 188 453.063C187.258 452.276 186.425 451.61 185.5 451.063C185.002 447.746 184.835 444.413 185 441.063C186 441.063 187 441.063 188 441.063C188.667 451.73 189.333 451.73 190 441.063C191.624 440.923 192.79 441.59 193.5 443.063C195.336 440.959 197.502 440.625 200 442.063C201.121 445.396 203.121 445.896 206 443.563C203.568 442.476 203.902 441.976 207 442.063C207.17 440.741 206.837 439.574 206 438.563C204.473 437.195 202.973 436.695 201.5 437.063C201.01 435.77 200.843 434.436 201 433.063C202.977 432.414 204.81 432.414 206.5 433.063C207 433.396 207.5 433.73 208 434.063C206.333 435.73 206.667 436.73 209 437.063C210.667 436.396 212.333 435.73 214 435.063C218.264 437.584 217.931 438.917 213 439.063C213 440.063 213 441.063 213 442.063C215.027 442.225 217.027 442.058 219 441.563C217.667 439.723 217.834 439.223 219.5 440.063C220.567 439.372 221.734 438.872 223 438.563C220.859 437.255 218.859 435.755 217 434.063C215.859 433.138 215.859 432.304 217 431.563C221.683 432.388 226.35 433.555 231 435.063C231.17 436.385 230.837 437.552 230 438.563C227.785 438.733 225.785 439.4 224 440.563C224.667 440.896 225.333 441.23 226 441.563C225.163 442.574 224.83 443.741 225 445.063C219.893 445.547 215.059 446.881 210.5 449.063C209.55 448.541 208.716 447.874 208 447.063C205.727 448.214 203.394 449.214 201 450.063C208.844 450.942 216.511 449.942 224 447.063C226.023 448.736 228.356 449.403 231 449.063C230.88 452.605 231.214 456.105 232 459.563C231.885 461.458 231.218 463.125 230 464.563C242.763 466.305 246.429 466.472 241 465.063C241 462.396 241 459.73 241 457.063C238.333 457.063 235.667 457.063 233 457.063C233 454.396 233 451.73 233 449.063C235.687 449.227 238.354 449.06 241 448.563C239.813 447.544 238.813 446.377 238 445.063C239.527 443.37 240.86 441.536 242 439.563C243.667 438.896 245.333 438.896 247 439.563C245.667 439.896 244.333 440.23 243 440.563C247.145 441.835 251.145 443.502 255 445.563C253.059 446.306 251.226 446.139 249.5 445.063C249.044 446.307 249.544 447.14 251 447.563C250.333 447.896 249.667 448.23 249 448.563C251.56 448.125 254.06 448.292 256.5 449.063C258.07 448.205 259.737 447.538 261.5 447.063C267.198 450.602 273.365 452.102 280 451.563C281.341 453.389 280.841 454.556 278.5 455.063C273.807 452.955 268.973 452.622 264 454.063C264.934 457.528 266.434 457.861 268.5 455.063C271.427 454.887 274.761 455.553 278.5 457.063C281.243 456.691 283.91 456.024 286.5 455.063C287.607 455.148 288.607 455.482 289.5 456.063C289.423 457.301 289.589 458.301 290 459.063C291.634 458.595 292.8 457.595 293.5 456.063C295.881 456.998 298.381 457.331 301 457.063C300.83 455.741 301.163 454.574 302 453.563C305.711 453.388 309.378 452.888 313 452.063C313.809 450.492 314.143 448.825 314 447.063C309.76 447.212 306.593 448.546 304.5 451.063C302.332 449.108 299.998 448.442 297.5 449.063C295.828 448.061 294.662 446.895 294 445.563C295.867 444.852 297.367 445.352 298.5 447.063C298.833 446.73 299.167 446.396 299.5 446.063C300.189 446.92 301.022 447.586 302 448.063C303.944 447.374 305.944 446.874 308 446.563C307 446.23 306 445.896 305 445.563C308.351 444.772 311.518 443.605 314.5 442.063C317.401 441.608 320.401 441.608 323.5 442.063C325.009 439.644 327.175 438.644 330 439.063C330 440.063 330 441.063 330 442.063C331.667 442.063 333.333 442.063 335 442.063C335 444.396 335 446.73 335 449.063C329.852 449.637 325.018 448.97 320.5 447.063C319.855 448.209 319.022 449.209 318 450.063C318.209 450.649 318.543 451.149 319 451.563C325.475 450.42 332.142 449.587 339 449.063C343.033 450.245 345.367 452.912 346 457.063C346.708 454.197 347.375 451.363 348 448.563C344.348 448.064 340.682 447.898 337 448.063C337 446.063 337 444.063 337 442.063C342.397 441.531 347.731 441.364 353 441.563C351.679 440.018 352.012 438.852 354 438.063C355.56 439.992 357.56 441.325 360 442.063C362.994 440.815 365.994 440.815 369 442.063C347.677 443.064 347.677 444.064 369 445.063C368.505 447.387 368.505 449.554 369 451.563C368.478 452.513 367.811 453.347 367 454.063C368.586 455.736 369.253 457.736 369 460.063C366.333 460.063 363.667 460.063 361 460.063C361 461.73 361 463.396 361 465.063C359.948 465.212 358.948 465.046 358 464.563C357.167 462.396 355.667 460.896 353.5 460.063C353.017 461.011 352.851 462.011 353 463.063C350.333 463.063 347.667 463.063 345 463.063C345 464.063 345 465.063 345 466.063C342.333 466.063 339.667 466.063 337 466.063C337 467.063 337 468.063 337 469.063C339.747 468.75 342.414 469.083 345 470.063C341.798 470.61 338.798 471.61 336 473.063C335.184 471.276 334.184 469.609 333 468.063C329.229 471.736 328.563 475.736 331 480.063C328.202 483.592 328.536 486.758 332 489.563C329.887 490.435 328.554 491.935 328 494.063C328.059 496.33 328.892 496.996 330.5 496.063C331.222 498.224 330.555 499.891 328.5 501.063C326.368 497.355 325.535 493.355 326 489.063C324.333 489.063 322.667 489.063 321 489.063C321 491.73 321 494.396 321 497.063C317.602 497.383 314.268 497.05 311 496.063C313.02 493.964 313.354 491.63 312 489.063C311.219 490.3 310.219 491.3 309 492.063C306.21 490.23 306.543 489.23 310 489.063C309.96 486.138 310.793 483.472 312.5 481.063C313.68 482.247 315.18 482.914 317 483.063C321.499 482.766 321.833 481.932 318 480.563C322 478.23 322 475.896 318 473.563C319 473.23 320 472.896 321 472.563C315.692 471.733 310.359 471.233 305 471.063C305 472.063 305 473.063 305 474.063C307.687 473.899 310.354 474.066 313 474.563C316.317 475.648 316.651 477.148 314 479.063C312.394 478.486 310.728 478.153 309 478.063C305.063 479.214 301.063 480.047 297 480.563C298.201 481.466 299.035 482.632 299.5 484.063C300.408 482.124 301.908 481.124 304 481.063C303.851 482.115 304.017 483.115 304.5 484.063C306.045 482.742 307.211 483.075 308 485.063C306.811 485.992 305.478 486.325 304 486.063C304 487.063 304 488.063 304 489.063C301.908 489.002 300.408 488.002 299.5 486.063C297.648 487.793 297.814 488.959 300 489.563C298.51 490.308 297.51 491.475 297 493.063C298.563 496.456 301.229 497.789 305 497.063C305 500.73 305 504.396 305 508.063C301.473 507.826 298.806 509.16 297 512.063C299.364 514.858 298.364 516.191 294 516.063C294 515.063 294 514.063 294 513.063C292.57 513.142 291.236 512.809 290 512.063C288.562 509.565 288.896 507.399 291 505.563C289.244 505.361 287.578 504.861 286 504.063C284.501 501.761 283.168 502.094 282 505.063C281.02 502.477 280.687 499.81 281 497.063C279.333 497.063 277.667 497.063 276 497.063C276 499.73 276 502.396 276 505.063C275 505.063 274 505.063 273 505.063C273 502.396 273 499.73 273 497.063C271.948 497.212 270.948 497.046 270 496.563C272.436 495.633 274.769 494.466 277 493.063C278.248 493.603 279.415 494.27 280.5 495.063C280.663 492.832 279.497 491.498 277 491.063C273.46 493.678 269.46 494.678 265 494.063C265 495.063 265 496.063 265 497.063C263.522 497.325 262.189 496.992 261 496.063C261.806 493.117 263.139 490.451 265 488.063C262.333 486.73 259.667 486.73 257 488.063C258.333 488.73 259.667 489.396 261 490.063C260.286 492.374 259.286 494.541 258 496.563C259.473 497.273 260.14 498.439 260 500.063C259 500.063 258 500.063 257 500.063C257 501.73 257 503.396 257 505.063C254.333 505.063 251.667 505.063 249 505.063C249.133 512.101 247.133 512.268 243 505.563C244.667 505.23 246.333 504.896 248 504.563C246.041 503.632 244.041 502.799 242 502.063C236.817 504.088 233.15 502.588 231 497.563C232.283 496.427 233.283 495.094 234 493.563C232.129 491.692 230.129 489.858 228 488.063C226.781 483.079 225.781 478.079 225 473.063C221.142 472.551 217.309 471.885 213.5 471.063C212 471.396 210.5 471.73 209 472.063C211.586 473.043 214.253 473.376 217 473.063C217 475.063 217 477.063 217 479.063C214.253 478.75 211.586 479.083 209 480.063C214.292 481.058 219.625 481.391 225 481.063C225.557 485.208 224.557 488.874 222 492.063C218.841 491.663 215.841 490.329 213 488.063C211.506 488.272 210.339 488.939 209.5 490.063C209.167 488.73 208.833 487.396 208.5 486.063C205.577 488.251 202.41 489.085 199 488.563C200.333 489.23 200.333 489.896 199 490.563C201.988 490.78 204.655 491.78 207 493.563C204.196 494.023 201.529 493.523 199 492.063C198.393 492.187 198.06 492.52 198 493.063Z" fill="#E66E06"/>
<path fill-rule="evenodd" clip-rule="evenodd" d="M324 437.063C323.071 437.878 322.071 438.711 321 439.563C304.288 442.781 287.621 443.614 271 442.063C288.881 442.498 306.548 440.831 324 437.063Z" fill="#C56226"/>
<path fill-rule="evenodd" clip-rule="evenodd" d="M191 492.063C193.361 492.237 195.694 492.57 198 493.063C204.658 496.229 211.658 498.729 219 500.563C220.256 500.98 220.923 501.813 221 503.063C210.787 499.772 200.787 496.105 191 492.063Z" fill="#C75F25"/>
<path fill-rule="evenodd" clip-rule="evenodd" d="M337 521.063C335.904 531.647 333.737 541.981 330.5 552.063C328.769 554.18 326.602 555.68 324 556.563C295 557.23 266 557.23 237 556.563C235.177 555.566 233.51 554.399 232 553.063C232 552.73 232 552.396 232 552.063C234.197 553.408 236.53 554.574 239 555.563C267 556.23 295 556.23 323 555.563C326.437 554.458 328.937 552.291 330.5 549.063C332.359 539.53 334.525 530.197 337 521.063Z" fill="#BF510F"/>
</svg>
